# xmcd CD database file
#
# Track frame offsets:
#	150
#	21880
#	42736
#	62757
#	90540
#	103050
#	122181
#	143122
#	157248
#	174686
#	199366
#	212124
#	235909
#
# Disc length: 3326 seconds
#
# Revision: 0
# Processed by: cddbd v1.5.2PL0 Copyright (c) Steve Scherf et al.
# Submitted via: CDex 1.51
#
DISCID=c70cfc0d
DTITLE=Laura Fedele - BLUES AND OTHER VICES
DYEAR=2014
DGENRE=Blues
TTITLE0=0 - SUNDAY SUNDAY
TTITLE1=0 - THE HUNTER
TTITLE2=0 - JE JOU
TTITLE3=0 - LAZY AND SLOW
TTITLE4=0 - IF
TTITLE5=0 - LOVE IS THE ANSWER
TTITLE6=0 - LETTER FOR A FRIEND
TTITLE7=0 - LOST MIND
TTITLE8=0 - LAUGH AND DANCE
TTITLE9=1 - PAPER BOAT
TTITLE10=1 - ROLL OVER
TTITLE11=1 - VAMPIRE WITH NO GRAVE
TTITLE12=1 - BOOGIE FOR PEACE
EXTD=YEAR: 2014
EXTT0=
EXTT1=
EXTT2=
EXTT3=
EXTT4=
EXTT5=
EXTT6=
EXTT7=
EXTT8=
EXTT9=
EXTT10=
EXTT11=
EXTT12=
PLAYORDER=
